<!DOCTYPE html PUBLIC "-//W3C//DTD XHTML 1.0 Transitional//EN" "http://www.w3.org/TR/xhtml1/DTD/xhtml1-transitional.dtd">
<html xmlns="http://www.w3.org/1999/xhtml">
<head>
  <meta http-equiv="Content-Type" content="text/html; charset=utf-8" />
  <meta http-equiv="Content-Style-Type" content="text/css" />
  <meta name="generator" content="pandoc" />
  <title></title>
  <style type="text/css">code{white-space: pre;}</style>
   <!-- syntax highlighting CSS -->
   <link rel="stylesheet" href="/assets/themes/mark-reid/css/syntax.css" type="text/css" />

   <!-- Homepage CSS -->
   <link rel="stylesheet" href="/assets/themes/mark-reid/css/screen.css" type="text/css" />

</head>
<body>
<div id="site">
  <div id="header">
    <h1>
    	<a href="/" title="WoNote">WoNote</a>
    	<span class="byline">← <a href="/">wogong</a></span>
    </h1>
    <ul class="nav">
	  <li><a class="home" href="/">Home</a></li>	
	  <li><a href="/archive.html">Archive</a></li>
      <li><a href="/kindle.html">Kindle</a></li>
      <li><a href="/wiki/">Wiki</a></li>
    </ul>
  </div>

  <div id="page">
<div id="TOC">
<ul>
<li><a href="#ffmpeg-foobar2000-flacape-to-itunes-alacm4a">ffmpeg + foobar2000 FLAC/APE to iTunes ALAC(m4a)</a></li>
</ul>
</div>
<p>说说自己平常怎样用ffmpeg方便看电影的，希望能给你的生活一点帮助</p>
<p>➢ ffmpeg是什么，懂的大侠跳过。。。 一款开源的跨平台的命令行软件，同时也是一套程序库，处理视频、音频的神器。。。 命令行？听起来好像很难用，咱看电影不就娱个乐嘛，折腾啥呢？ 其实按我说的来用，真心很简单，咱也不说那些高端的，就说点简单实用的。 另外，怎么说，折腾其实是生活态度的问题，娱乐也不仅仅是打发时间，也是生命的一部分，不多说了。。。</p>
<p>➢ 我用ffmpeg干什么？ ★ 转换格式 为什么要转格式呢？因为希望用系统播放器。 这里有软解码和硬解码的问题、Airplay的问题、AC3支持的问题、iTunes家庭共享的问题、收藏的问题，等等吧，就不展开说了。</p>
<p>★ 嵌字幕 iTunes不支持外挂字幕，这个确实很蛋疼。</p>
<p>➢ 下面开始演示，重点啊！ ★ 我这有部《肖生克的救赎》，视频和字幕已经通过合法途径获取： The.Shawshank.Redemption.1994.Bluray.x264.anoXmous.mkv The.Shawshank.Redemption.1994.Bluray.x264.anoXmous_eng.srt</p>
<p>★ 那我就这样 $ ffmpeg -i The.Shawshank.Redemption.1994.Bluray.x264.anoXmous.mkv<br />-i The.Shawshank.Redemption.1994.Bluray.x264.anoXmous_eng.srt<br />-map 0:0 -map 0:1 -map 1:0<br />-vcodec copy -acodec copy -scodec mov_text<br />-y The.Shawshank.Redemption.1994.Bluray.x264.anoXmous.mp4</p>
<p>★ 下面解释一下参数 -i 原视频文件.mkv #这个好理解吧 -i 原字幕文件.srt #这个也好理解了吧 -map n:m #这个是说，我要其中第n个输入文件的第m个流，这里mkv就是n=0，srt就是n=1，等下再说m -vcodec copy #这是说视频编码格式不变 -acodec copy #同上，音频 -scodec mov_text #指定字幕的编码格式 -y 目标文件.mp4 #直接覆盖，不询问</p>
<p>★ 没看明白的，往下读。。。 流（或者叫“轨”吧）是怎么回事？ 你输入这个命令 $ ffmpeg -i 视频文件.mkv 注意找下输出里类似这样的内容： Stream #0:0(und): Video: h264 ...... Stream #0:1(eng): Audio: aac ...... Stream #0:2: Subtitle: mov_text ...... 他们分别是视频的、音频的和字幕的，三种类型的流。有的时候可能没有字幕流，有的时候可能不止一个音频流，因为有不同语言，这都很正常。 重要的是你要先通过这个命令来看看有哪些流，然后挑选你要的，所以这个m，你知道该怎么填了吧。</p>
<p>★ 再说codec 因为这里原始文件就是h264和aac，系统默认支持，所以就不需要转成别的编码，这样就避免了重编码（一些转码软件脑残至极啊！h264转h264啊！慢到死的节奏啊！）。 所以你直接写copy，就是直接硬盘复制的节奏啦！当然你需要的话，可以转成其他的编码，比如音频转成mp3编码，就是“-acodec mp3”，不过那样就不是复制的节奏了，会慢好些哦。。。 字幕，因为是外挂的，所以就需要指定编码格式了，我只用过mov_text，其他不了解了。</p>
<p>★ 既然视频和音频编码都没有改变，那转个什么劲？ 其实重要的是转封装，简单说就是视频文件的格式吧，.mkv文件，iTunes就不认得，.mp4谁都认得。</p>
<p>➢ 最后外挂一下，ffmpeg软件如何获取，Mac下推荐用Homebrew，相当方便！ Windows好像可以直接下载编译好的.exe，Linux下用apt-get什么的更爽了。 安装Homebrew: $ ruby -e &quot;<span class="math">$(curl -fsSL https://raw.github.com/Homebrew/homebrew/go/install)&quot; 安装ffmpeg: $</span> brew install ffmpeg</p>
<p>就说这些，希望电影带给你的愉快，可以弥补学习这些枯燥的命令行吧～ 如果你有其他场景和需求的，我们再一起探讨之。 第 1 条附言 · 43 天前 想补充两点</p>
<p>如果原文件的流都需要的话，可以不用写-map n:m</p>
<p>如果想指定音频和字幕语言的话，可以加上 -metadata:s:a:0 language=eng #s就是stream，a就是音频，0就是第0个音轨 -metadata:s:s:0 language=eng #第二个s是subtitle</p>
<h2 id="ffmpeg-foobar2000-flacape-to-itunes-alacm4a"><a href="#ffmpeg-foobar2000-flacape-to-itunes-alacm4a">ffmpeg + foobar2000 FLAC/APE to iTunes ALAC(m4a)</a></h2>

  </div>
</div>

  <script type="text/javascript">
  var _gaq = _gaq || [];
  _gaq.push(['_setAccount', 'UA-34308107-1']);
  _gaq.push(['_trackPageview']);

  (function() {
    var ga = document.createElement('script'); ga.type = 'text/javascript'; ga.async = true;
    ga.src = ('https:' == document.location.protocol ? 'https://ssl' : 'http://www') + '.google-analytics.com/ga.js';
    var s = document.getElementsByTagName('script')[0]; s.parentNode.insertBefore(ga, s);
  })();
</script>


</body>
</html>
